<svg width="54" height="43" viewBox="0 0 54 43" fill="none" xmlns="http://www.w3.org/2000/svg">
<path fill-rule="evenodd" clip-rule="evenodd" d="M28.2641 14.0741C29.6126 14.8235 30.9618 15.573 32.3102 16.3224C32.8906 16.6447 33.1452 17.3285 32.9167 17.9522C31.7566 21.1217 28.3587 22.7947 25.1615 21.6278C18.6147 19.2382 13.762 14.3853 11.3722 7.83851C10.2053 4.64138 11.8783 1.24342 15.0478 0.0832739C15.6715 -0.145234 16.3554 0.109363 16.6784 0.689785C17.427 2.03827 18.1765 3.38754 18.9259 4.73594C19.2772 5.36854 19.1946 6.11943 18.7138 6.65963C18.0842 7.36817 17.4546 8.07655 16.825 8.78434C18.169 12.0573 20.9426 14.831 24.2156 16.175C24.9234 15.5453 25.6318 14.9158 26.3403 14.2862C26.8813 13.8054 27.6316 13.7228 28.264 14.0741L28.2641 14.0741Z" fill="#3E3E3E"/>
<path d="M0.888203 39.1C1.3982 39.1 1.9382 38.8 2.3182 38.24C2.4282 38.08 2.5882 37.81 2.6682 37.43L2.8682 39H3.7182L3.1782 33.8H1.0482V34.6H2.3482L2.4582 35.68C2.5482 36.58 2.3782 37.13 1.9182 37.58C1.6082 37.87 1.2782 38.09 0.808203 38.21V39.1H0.888203ZM6.27891 36.65V33.8H4.52891V34.6H5.32891V36.65H6.27891ZM11.6316 33.8H10.6816L10.5416 34.83C10.4116 35.73 10.1716 35.92 9.63164 36.1L8.14164 33.8H7.13164L10.0316 38.2H7.37164V39H11.5016V38.98L10.0016 36.67C10.8516 36.4 11.3016 36.05 11.4816 34.83L11.6316 33.8ZM14.807 39V33.8H12.657V34.6H13.857V38.2H12.607V39H14.807ZM23.2991 39V35.8C23.2991 34.46 22.7091 33.8 21.2991 33.8H18.6991V39H23.2991ZM19.6491 34.6H21.0191C22.0791 34.6 22.3491 34.92 22.3491 35.93V38.2H19.6491V34.6ZM28.112 35.56C27.972 37.43 27.632 38.03 26.662 38.17L25.522 33.8H24.572L25.712 38.2H24.502V39H26.122C28.172 39 28.842 38.01 29.052 35.56L29.202 33.8H28.242L28.112 35.56ZM37.0426 39V33.8H32.5926V34.6H36.0926V39H37.0426ZM33.5926 39V36H32.6426V39H33.5926ZM39.6491 39V34.6H40.9391C41.9991 34.6 42.2691 34.92 42.2691 35.93V39H43.2191V35.8C43.2191 34.46 42.6291 33.8 41.2191 33.8H38.6991V39H39.6491ZM45.7711 36.65V33.8H44.0211V34.6H44.8211V36.65H45.7711ZM52.0938 34.86C51.7738 37.45 51.2538 38.2 49.1438 38.2H48.3938L48.2438 36.81H48.3638C49.6938 36.81 50.2338 36.34 50.3938 35.09L50.5638 33.8H49.6438L49.4938 35.11C49.4138 35.85 49.0538 36.15 48.3638 36.15H48.1738L47.9238 33.8H46.9838L47.5438 39H49.0538C51.7738 39 52.6338 38.1 53.0138 35.02L53.1638 33.8H52.2238L52.0938 34.86Z" fill="#3E3E3E"/>
</svg>
