<svg width="9" height="7" viewBox="0 0 9 7" fill="none" xmlns="http://www.w3.org/2000/svg">
<path d="M1.37297 3.33366C1.18905 3.12767 0.872977 3.10978 0.666992 3.2937C0.461007 3.47761 0.443116 3.79369 0.627031 3.99967L1.37297 3.33366ZM3.08333 6L2.71036 6.33301C2.80277 6.4365 2.93401 6.49694 3.07272 6.49989C3.21143 6.50283 3.34512 6.44801 3.44183 6.34854L3.08333 6ZM8.35355 1.35355C8.54882 1.15829 8.54882 0.841709 8.35355 0.646447C8.15829 0.451184 7.84171 0.451184 7.64645 0.646447L8.35355 1.35355ZM6 3L5.64641 2.64641L5.6415 2.65146L6 3ZM0.627031 3.99967L2.71036 6.33301L3.4563 5.66699L1.37297 3.33366L0.627031 3.99967ZM3.44183 6.34854L6.3585 3.34854L5.6415 2.65146L2.72484 5.65146L3.44183 6.34854ZM6.35355 3.35355L8.35355 1.35355L7.64645 0.646447L5.64645 2.64645L6.35355 3.35355Z" fill="white"/>
</svg>
