<svg width="22" height="22" viewBox="0 0 22 22" fill="none" xmlns="http://www.w3.org/2000/svg">
<path fill-rule="evenodd" clip-rule="evenodd" d="M17.2641 14.0741C18.6126 14.8235 19.9618 15.573 21.3102 16.3224C21.8906 16.6447 22.1452 17.3285 21.9167 17.9522C20.7566 21.1217 17.3587 22.7947 14.1615 21.6278C7.61474 19.2382 2.76203 14.3853 0.372208 7.83851C-0.79473 4.64138 0.878341 1.24342 4.04785 0.0832739C4.67153 -0.145234 5.35536 0.109363 5.67841 0.689785C6.42702 2.03827 7.17654 3.38754 7.9259 4.73594C8.27717 5.36854 8.19461 6.11943 7.71381 6.65963C7.08416 7.36817 6.45463 8.07655 5.82498 8.78434C7.16902 12.0573 9.94263 14.831 13.2156 16.175C13.9234 15.5453 14.6318 14.9158 15.3403 14.2862C15.8813 13.8054 16.6316 13.7228 17.264 14.0741L17.2641 14.0741Z" fill="#3E3E3E"/>
</svg>
