<svg width="160" height="30" viewBox="0 0 160 30" fill="none" xmlns="http://www.w3.org/2000/svg">
<path d="M45.7128 24.8534C40.2373 24.8534 35.8594 20.5324 35.8594 14.9999C35.8594 9.46745 40.2341 5.14648 45.7128 5.14648C51.1915 5.14648 55.5662 9.47061 55.5662 14.9999C55.5662 20.5292 51.2168 24.8534 45.7128 24.8534ZM45.7128 22.4904C49.9009 22.4904 53.0705 19.188 53.0705 14.9999C53.0705 10.8118 49.9009 7.50941 45.7128 7.50941C41.5247 7.50941 38.3836 10.8118 38.3836 14.9999C38.3836 19.188 41.5532 22.4904 45.7128 22.4904Z" fill="black"/>
<path d="M71.8141 24.5313L60.2145 9.68314V24.5313H57.7188V5.46973H59.8919L71.4914 20.3179V5.46973H73.9619V24.5313H71.8141V24.5313Z" fill="black"/>
<path d="M76.8906 5.46973H88.0062V7.83265H79.3864V13.6055H86.3929V15.9685H79.3864V22.1715H88.0062V24.5345H76.8906V5.46973V5.46973Z" fill="black"/>
<path d="M96.7031 22.8674L107.041 7.83265H97.0005V5.46973H110.343V7.13358L100.006 22.1684H110.612V24.5313H96.7031V22.8674V22.8674Z" fill="black"/>
<path d="M113 5.46973H124.116V7.83265H115.496V13.6055H122.502V15.9685H115.496V22.1715H124.116V24.5345H113V5.46973Z" fill="black"/>
<path d="M126.344 5.46973H132.841C136.359 5.46973 138.532 7.59225 138.532 10.7333C138.532 13.5265 136.76 15.4054 133.834 15.8356L141.163 24.5345H138.022L130.693 15.8641H128.84V24.5345H126.344V5.46973ZM132.547 13.6308C134.723 13.6308 136.036 12.6376 136.036 10.7302C136.036 8.82274 134.72 7.77572 132.547 7.77572H128.843V13.6277H132.547V13.6308Z" fill="black"/>
<path d="M149.775 24.8534C144.3 24.8534 139.922 20.5324 139.922 14.9999C139.922 9.46745 144.297 5.14648 149.775 5.14648C155.254 5.14648 159.629 9.47061 159.629 14.9999C159.629 20.5292 155.279 24.8534 149.775 24.8534ZM149.775 22.4904C153.963 22.4904 157.133 19.188 157.133 14.9999C157.133 10.8118 153.963 7.50941 149.775 7.50941C145.587 7.50941 142.446 10.8118 142.446 14.9999C142.446 19.188 145.616 22.4904 149.775 22.4904Z" fill="black"/>
<path d="M15 0C6.72817 0 0 6.72817 0 15C0 23.2718 6.72817 30 15 30C23.2718 30 30 23.2718 30 15C30 6.72817 23.2718 0 15 0ZM28.3678 15C28.3678 22.3703 22.3703 28.3678 15 28.3678C7.62969 28.3678 1.63222 22.3735 1.63222 15C1.63222 7.62653 7.62969 1.63222 15 1.63222C22.3703 1.63222 28.3678 7.62969 28.3678 15Z" fill="black"/>
<path d="M15.8197 5.42871H14.1875V24.5725H15.8197V5.42871Z" fill="black"/>
</svg>
