<svg width="112" height="21" viewBox="0 0 112 21" fill="none" xmlns="http://www.w3.org/2000/svg">
<path d="M32.0133 17.3966C28.179 17.3966 25.1133 14.3719 25.1133 10.4992C25.1133 6.62648 28.1768 3.60181 32.0133 3.60181C35.8498 3.60181 38.9133 6.62869 38.9133 10.4992C38.9133 14.3697 35.8676 17.3966 32.0133 17.3966ZM32.0133 15.7426C34.9461 15.7426 37.1656 13.4309 37.1656 10.4992C37.1656 7.56754 34.9461 5.25586 32.0133 5.25586C29.0805 5.25586 26.8809 7.56754 26.8809 10.4992C26.8809 13.4309 29.1005 15.7426 32.0133 15.7426Z" fill="#3E3E3E"/>
<path d="M50.2875 17.1688L42.1647 6.77507V17.1688H40.417V3.82568H41.9388L50.0615 14.2194V3.82568H51.7915V17.1688H50.2875Z" fill="#3E3E3E"/>
<path d="M53.8408 3.82568H61.6247V5.47973H55.5885V9.52075H60.495V11.1748H55.5885V15.517H61.6247V17.171H53.8408V3.82568Z" fill="#3E3E3E"/>
<path d="M67.7158 16.0041L74.9547 5.47973H67.924V3.82568H77.2673V4.99038L70.0284 15.5147H77.4556V17.1688H67.7158V16.0041Z" fill="#3E3E3E"/>
<path d="M79.1279 3.82568H86.9118V5.47973H80.8756V9.52075H85.7821V11.1748H80.8756V15.517H86.9118V17.171H79.1279V3.82568Z" fill="#3E3E3E"/>
<path d="M88.4736 3.82568H93.0234C95.4866 3.82568 97.0084 5.31145 97.0084 7.51021C97.0084 9.46539 95.7679 10.7807 93.719 11.0818L98.8514 17.171H96.6518L91.5194 11.1017H90.2213V17.171H88.4736V3.82568ZM92.8174 9.53846C94.3414 9.53846 95.2607 8.84319 95.2607 7.50799C95.2607 6.17279 94.3392 5.43988 92.8174 5.43988H90.2236V9.53625H92.8174V9.53846Z" fill="#3E3E3E"/>
<path d="M104.885 17.3966C101.051 17.3966 97.9854 14.3719 97.9854 10.4992C97.9854 6.62648 101.049 3.60181 104.885 3.60181C108.722 3.60181 111.785 6.62869 111.785 10.4992C111.785 14.3697 108.74 17.3966 104.885 17.3966ZM104.885 15.7426C107.818 15.7426 110.038 13.4309 110.038 10.4992C110.038 7.56754 107.818 5.25586 104.885 5.25586C101.953 5.25586 99.753 7.56754 99.753 10.4992C99.753 13.4309 101.973 15.7426 104.885 15.7426Z" fill="#3E3E3E"/>
<path d="M10.504 0C4.71151 0 0 4.70972 0 10.5C0 16.2903 4.71151 21 10.504 21C16.2965 21 21.008 16.2903 21.008 10.5C21.008 4.70972 16.2965 0 10.504 0ZM19.865 10.5C19.865 15.6592 15.6651 19.8574 10.504 19.8574C5.34281 19.8574 1.14299 15.6614 1.14299 10.5C1.14299 5.33857 5.34281 1.14256 10.504 1.14256C15.6651 1.14256 19.865 5.34078 19.865 10.5Z" fill="#3E3E3E"/>
<path d="M11.0756 3.80322H9.93262V17.2039H11.0756V3.80322Z" fill="#3E3E3E"/>
</svg>
