<svg width="118" height="22" viewBox="0 0 118 22" fill="none" xmlns="http://www.w3.org/2000/svg">
<path d="M33.5227 18.2251C29.5073 18.2251 26.2969 15.0564 26.2969 10.9993C26.2969 6.94214 29.505 3.77344 33.5227 3.77344C37.5404 3.77344 40.7486 6.94446 40.7486 10.9993C40.7486 15.0541 37.559 18.2251 33.5227 18.2251ZM33.5227 16.4923C36.594 16.4923 38.9183 14.0706 38.9183 10.9993C38.9183 7.92801 36.594 5.50625 33.5227 5.50625C30.4515 5.50625 28.148 7.92801 28.148 10.9993C28.148 14.0706 30.4723 16.4923 33.5227 16.4923Z" fill="#3E3E3E"/>
<path d="M52.6647 17.9892L44.1584 7.10058V17.9892H42.3281V4.01074H43.9218L52.4281 14.8994V4.01074H54.2398V17.9892H52.6647Z" fill="#3E3E3E"/>
<path d="M56.3828 4.01074H64.5342V5.74356H58.2131V9.977H63.3512V11.7098H58.2131V16.2587H64.5342V17.9916H56.3828V4.01074Z" fill="#3E3E3E"/>
<path d="M70.9141 16.7691L78.4948 5.74356H71.1321V4.01074H80.9166V5.2309L73.3358 16.2564H81.1138V17.9892H70.9141V16.7691Z" fill="#3E3E3E"/>
<path d="M82.8594 4.01074H91.0108V5.74356H84.6896V9.977H89.8277V11.7098H84.6896V16.2587H91.0108V17.9916H82.8594V4.01074Z" fill="#3E3E3E"/>
<path d="M92.6562 4.01074H97.4209C100 4.01074 101.594 5.56726 101.594 7.87072C101.594 9.91901 100.295 11.2969 98.1493 11.6124L103.524 17.9916H101.221L95.8458 11.6333H94.4865V17.9916H92.6562V4.01074ZM97.2052 9.99556C98.8011 9.99556 99.7638 9.26717 99.7638 7.8684C99.7638 6.46962 98.7988 5.7018 97.2052 5.7018H94.4888V9.99324H97.2052V9.99556Z" fill="#3E3E3E"/>
<path d="M109.835 18.2251C105.82 18.2251 102.609 15.0564 102.609 10.9993C102.609 6.94214 105.818 3.77344 109.835 3.77344C113.853 3.77344 117.061 6.94446 117.061 10.9993C117.061 15.0541 113.871 18.2251 109.835 18.2251ZM109.835 16.4923C112.907 16.4923 115.231 14.0706 115.231 10.9993C115.231 7.92801 112.907 5.50625 109.835 5.50625C106.764 5.50625 104.46 7.92801 104.46 10.9993C104.46 14.0706 106.785 16.4923 109.835 16.4923Z" fill="#3E3E3E"/>
<path d="M11 0C4.93399 0 0 4.93399 0 11C0 17.066 4.93399 22 11 22C17.066 22 22 17.066 22 11C22 4.93399 17.066 0 11 0ZM20.803 11C20.803 16.4049 16.4049 20.803 11 20.803C5.59511 20.803 1.19696 16.4072 1.19696 11C1.19696 5.59279 5.59511 1.19696 11 1.19696C16.4049 1.19696 20.803 5.59511 20.803 11Z" fill="#3E3E3E"/>
<path d="M11.6032 3.98047H10.4062V18.0193H11.6032V3.98047Z" fill="#3E3E3E"/>
</svg>
